$MeshFormat
4.1 0 8
$EndMeshFormat
$PhysicalNames
6
1 201 "base_boundary"
1 202 "upstream_face"
1 203 "dam_foundation_interface"
1 204 "crest_boundary"
2 101 "dam_body"
2 102 "foundation_body"
$EndPhysicalNames
$Entities
7 8 2 0
1 0 0 0 0 
2 80 0 0 0 
3 80 100 0 0 
4 70 100 0 0 
5 0 100 0 0 
6 -200 -40 0 0 
7 240 -40 0 0 
1 0 0 0 80 0 0 1 203 2 1 -2 
2 80 0 0 80 100 0 0 2 2 -3 
3 70 100 0 80 100 0 0 2 3 -4 
4 0 100 0 70 100 0 1 204 2 4 -5 
5 0 0 0 0 100 0 1 202 2 5 -1 
6 -200 -40 0 0 0 0 0 2 1 -6 
7 -200 -40 0 240 -40 0 1 201 2 6 -7 
8 80 -40 0 240 0 0 0 2 7 -2 
20 0 0 0 80 100 0 1 101 5 1 2 3 4 5 
21 -200 -40 0 240 0 0 1 102 4 -1 6 7 8 
$EndEntities
$Nodes
17 605 1 605
0 1 0 1
1
0 0 0
0 2 0 1
2
80 0 0
0 3 0 1
3
80 100 0
0 4 0 1
4
70 100 0
0 5 0 1
5
0 100 0
0 6 0 1
6
-200 -40 0
0 7 0 1
7
240 -40 0
1 1 0 15
8
9
10
11
12
13
14
15
16
17
18
19
20
21
22
4.9999999999956 0 0
9.999999999991752 0 0
14.9999999999775 0 0
19.9999999999629 0 0
24.99999999994829 0 0
29.99999999993369 0 0
34.99999999993158 0 0
39.99999999993918 0 0
44.99999999994678 0 0
49.99999999995438 0 0
54.99999999996199 0 0
59.99999999996959 0 0
64.99999999997719 0 0
69.99999999998479 0 0
74.9999999999924 0 0
1 2 0 19
23
24
25
26
27
28
29
30
31
32
33
34
35
36
37
38
39
40
41
80 4.999999999979755 0
80 9.999999999961581 0
80 14.99999999994008 0
80 19.99999999991413 0
80 24.99999999988819 0
80 29.99999999986224 0
80 34.99999999984823 0
80 39.99999999984005 0
80 44.99999999983187 0
80 49.99999999982369 0
80 54.99999999981551 0
80 59.99999999980733 0
80 64.99999999980859 0
80 69.99999999983592 0
80 74.99999999986328 0
80 79.99999999989062 0
80 84.99999999991796 0
80 89.9999999999453 0
80 94.99999999997266 0
1 3 0 1
42
75 100 0
1 4 0 13
43
44
45
46
47
48
49
50
51
52
53
54
55
64.99999999997878 100 0
60.0000000000008 100 0
55.00000000003033 100 0
50.00000000005987 100 0
45.00000000008941 100 0
40.00000000011895 100 0
35.0000000001471 100 0
30.00000000012728 100 0
25.00000000010606 100 0
20.00000000008485 100 0
15.00000000006364 100 0
10.00000000004242 100 0
5.000000000021217 100 0
1 5 0 19
56
57
58
59
60
61
62
63
64
65
66
67
68
69
70
71
72
73
74
0 95.00000000003553 0
0 90.00000000007105 0
0 85.00000000010658 0
0 80.00000000014211 0
0 75.00000000017764 0
0 70.00000000021316 0
0 65.00000000024869 0
0 60.00000000025813 0
0 55.00000000025813 0
0 50.00000000025813 0
0 45.00000000025813 0
0 40.00000000025814 0
0 35.0000000002487 0
0 30.00000000021316 0
0 25.00000000017765 0
0 20.00000000014211 0
0 15.00000000010658 0
0 10.00000000007105 0
0 5.000000000035527 0
1 6 0 29
75
76
77
78
79
80
81
82
83
84
85
86
87
88
89
90
91
92
93
94
95
96
97
98
99
100
101
102
103
-4.67477951154892 -0.934955902309784 0
-9.45882570143876 -1.891765140287752 0
-14.35469256947852 -2.870938513895704 0
-19.36499721869863 -3.872999443739726 0
-24.49241089865389 -4.898482179730779 0
-29.73967129629663 -5.947934259259325 0
-35.10958143756809 -7.021916287513617 0
-40.60500838344026 -8.121001676688051 0
-46.22888350625126 -9.245776701250252 0
-51.98421105314031 -10.39684221062806 0
-57.8740625672186 -11.57481251344372 0
-63.90158309381511 -12.78031661876302 0
-70.06998938737283 -14.01399787747457 0
-76.38257695065582 -15.27651539013116 0
-82.84271351216306 -16.56854270243261 0
-89.45384761086198 -17.89076952217239 0
-96.21951152499588 -19.24390230499917 0
-103.1433143326543 -20.62866286653086 0
-110.2289534625935 -22.0457906925187 0
-117.4802105784474 -23.49604211568948 0
-124.9009588407401 -24.98019176814801 0
-132.4951595853982 -26.49903191707965 0
-140.2668677177359 -28.05337354354717 0
-148.2202278904356 -29.64404557808713 0
-156.3594888272846 -31.27189776545693 0
-164.6889987093266 -32.93779974186532 0
-173.2131993603089 -34.64263987206178 0
-181.9366419908941 -36.38732839817882 0
-190.8639904126377 -38.17279808252754 0
1 7 0 43
104
105
106
107
108
109
110
111
112
113
114
115
116
117
118
119
120
121
122
123
124
125
126
127
128
129
130
131
132
133
134
135
136
137
138
139
140
141
142
143
144
145
146
-190.0000000000323 -40 0
-180.0000000000646 -40 0
-170.0000000000969 -40 0
-160.0000000001292 -40 0
-150.0000000001615 -40 0
-140.0000000001938 -40 0
-130.0000000002261 -40 0
-120.0000000002584 -40 0
-110.0000000002907 -40 0
-100.000000000323 -40 0
-90.00000000035527 -40 0
-80.00000000038756 -40 0
-70.00000000041985 -40 0
-60.00000000045216 -40 0
-50.00000000048445 -40 0
-40.00000000051676 -40 0
-30.00000000054905 -40 0
-20.00000000058134 -40 0
-10.00000000061365 -40 0
-6.459401902247919e-10 -40 0
9.999999999321744 -40 0
19.999999999295 -40 0
29.99999999932177 -40 0
39.99999999935403 -40 0
49.99999999938638 -40 0
59.99999999941866 -40 0
69.99999999945095 -40 0
79.99999999948324 -40 0
89.99999999951552 -40 0
99.99999999954781 -40 0
109.9999999995802 -40 0
119.9999999996124 -40 0
129.9999999996447 -40 0
139.9999999996771 -40 0
149.9999999997093 -40 0
159.9999999997416 -40 0
169.9999999997739 -40 0
179.9999999998062 -40 0
189.9999999998385 -40 0
199.9999999998709 -40 0
209.9999999999031 -40 0
219.9999999999354 -40 0
229.9999999999677 -40 0
1 8 0 23
147
148
149
150
151
152
153
154
155
156
157
158
159
160
161
162
163
164
165
166
167
168
169
230.8902235277629 -37.72255588194073 0
222.0397810717082 -35.50994526792705 0
213.441294359 -33.36032358975 0
205.0875910241228 -31.27189775603069 0
196.9717016289552 -29.2429254072388 0
189.086855459469 -27.27171386486725 0
181.426474942035 -25.35661873550876 0
173.9841685734621 -23.49604214336552 0
166.7537325807829 -21.68843314519573 0
159.7291326848177 -19.93228317120443 0
152.9045101605037 -18.22612754012592 0
146.2741709002233 -16.56854272505582 0
139.8325844002018 -14.95814610005045 0
133.5743776351885 -13.39359440879711 0
127.4943292552297 -11.87358231380742 0
121.5873688962789 -10.39684222406973 0
115.8485677317586 -8.962141932939641 0
110.2731384429773 -7.568284610744328 0
104.8564324080069 -6.214108102001717 0
99.59392874285879 -4.898482185714698 0
94.48123810317119 -3.620309525792798 0
89.51409619994996 -2.37852404998749 0
84.68835795822071 -1.172089489555177 0
2 20 0 285
170
171
172
173
174
175
176
177
178
179
180
181
182
183
184
185
186
187
188
189
190
191
192
193
194
195
196
197
198
199
200
201
202
203
204
205
206
207
208
209
210
211
212
213
214
215
216
217
218
219
220
221
222
223
224
225
226
227
228
229
230
231
232
233
234
235
236
237
238
239
240
241
242
243
244
245
246
247
248
249
250
251
252
253
254
255
256
257
258
259
260
261
262
263
264
265
266
267
268
269
270
271
272
273
274
275
276
277
278
279
280
281
282
283
284
285
286
287
288
289
290
291
292
293
294
295
296
297
298
299
300
301
302
303
304
305
306
307
308
309
310
311
312
313
314
315
316
317
318
319
320
321
322
323
324
325
326
327
328
329
330
331
332
333
334
335
336
337
338
339
340
341
342
343
344
345
346
347
348
349
350
351
352
353
354
355
356
357
358
359
360
361
362
363
364
365
366
367
368
369
370
371
372
373
374
375
376
377
378
379
380
381
382
383
384
385
386
387
388
389
390
391
392
393
394
395
396
397
398
399
400
401
402
403
404
405
406
407
408
409
410
411
412
413
414
415
416
417
418
419
420
421
422
423
424
425
426
427
428
429
430
431
432
433
434
435
436
437
438
439
440
441
442
443
444
445
446
447
448
449
450
451
452
453
454
4.999999999988366 60.00000000024233 0
75.00000000000924 44.99999999983349 0
40.00000000011153 95.00000000002316 0
44.9999999999479 5.000000000003522 0
4.999999358438714 39.99999935867778 0
29.99976207891913 4.999762078970095 0
74.99999999999687 64.99999999982948 0
55.00000000003372 95.00000000002076 0
75.0000000000161 19.99999999991963 0
4.998989409040725 24.99898940918851 0
20.00000000006718 94.99999999999743 0
19.99373147273849 4.993731472766585 0
74.99999999998811 79.99999999990176 0
4.999999999992811 90.00000000004663 0
4.999999999978121 80.00000000011686 0
64.99999999999683 95.00000000000377 0
64.99999999998504 4.999999999998485 0
4.977279411004223 14.97727941107909 0
75.00000000001548 29.99999999986905 0
74.99999999999109 89.99999999995752 0
4.949481599175469 9.949481599221428 0
74.99999999999851 4.999999999987224 0
9.95183136029533 4.951831360312781 0
69.99999999999291 94.99999999999118 0
75.00000000000614 54.99999999982288 0
30.00000000011789 95.00000000000894 0
4.999999999978384 70.00000000019034 0
4.999991759823326 34.99999176004086 0
39.99999803605458 4.999998036113462 0
10.00000000001868 95.00000000000774 0
74.99999999999241 69.99999999984745 0
4.999999999867699 50.00000000012385 0
59.99999999997537 5.000000000001363 0
54.9999999999654 5.000000000003141 0
45.00000000008648 95.00000000002468 0
75.00000000001283 34.99999999985322 0
74.99999999999567 94.99999999998059 0
75.00000000000522 9.999999999970511 0
4.959541080842341 4.959541080866673 0
5.000000000007115 95.00000000002156 0
9.999997108409932 39.99999710863528 0
39.99999436025047 9.999994360307387 0
70.00000000002801 29.99999999987249 0
40.00000000010347 90.00000000004425 0
69.99999999999781 64.99999999984604 0
59.99999999998643 9.999999999995406 0
9.999999999995284 90.00000000002437 0
9.979017726676721 14.97901772672418 0
9.963770220494746 9.963770220525227 0
70.00000000000502 9.999999999979707 0
25.00000000009399 95.00000000000173 0
60.00000000001074 95.00000000001349 0
74.99999999999004 74.99999999987405 0
15.00000000003919 95.00000000000117 0
74.99999999998946 84.99999999993173 0
75.00000000000261 59.99999999982337 0
4.99398672337707 19.9939867234875 0
4.999793299499741 29.99979329968494 0
35.00000000012245 95.00000000001697 0
4.999999738998834 44.99999973924873 0
34.99995571612224 4.999955716179717 0
4.999999999912449 55.00000000016999 0
49.9999999999561 5.00000000000384 0
69.99999999999324 4.999999999992061 0
4.999999999983034 65.00000000022057 0
75.00000000001073 39.99999999984222 0
75.00000000000796 49.9999999998273 0
75.00000000001654 24.9999999998921 0
50.00000000005941 95.00000000002339 0
24.99836049467963 4.998360494719265 0
14.98214580635714 4.98214580637819 0
75.000000000011 14.99999999994708 0
4.999999999984822 85.00000000007955 0
4.999999999977438 75.0000000001525 0
64.99999999999515 90.00000000000084 0
69.99999999998957 89.99999999997664 0
9.999999999960993 70.00000000015761 0
25.0000000000676 90.00000000000702 0
70.00000000001602 49.99999999983284 0
69.99999999998521 74.99999999989376 0
15.00000000000956 90.00000000000924 0
70.00000000000657 59.99999999983697 0
9.999675886905335 29.99967588706189 0
9.992515817766995 19.99251581784291 0
29.9995079252396 9.999507925279044 0
55.00000000003233 90.00000000003671 0
9.999999999950994 60.00000000020221 0
14.98048224531659 9.98048224533721 0
64.99999999999875 9.999999999986592 0
69.99999999999081 69.99999999986662 0
9.999927062740566 34.99992706293598 0
9.999999421852214 44.99999942209511 0
69.9999999999858 84.99999999995615 0
9.999999999656188 54.99999999991257 0
60.00000000001053 90.00000000002105 0
49.99999998885149 9.999999988898518 0
44.9999990597878 9.999999059842994 0
54.99999999858359 9.999999998612221 0
70.00000000002103 39.99999999984453 0
34.99989815951027 9.999898159560429 0
35.00000000010819 90.00000000003365 0
70.00000000002412 34.99999999985683 0
45.00000000008225 90.00000000004654 0
9.999999999962878 80.00000000008055 0
70.00000000002936 24.99999999989584 0
70.00000000002612 19.99999999992547 0
70.00000000001646 14.99999999995494 0
19.99245119055291 9.992451190571529 0
9.999999999977362 85.00000000005006 0
14.99999999987481 60.00000000012327 0
14.99999914810271 44.99999914833973 0
65.00000000001241 59.99999999985402 0
29.99953979941353 14.99953979943848 0
65.00000000003283 34.99999999986271 0
40.00000000009056 85.00000000006325 0
64.99999999999363 69.99999999989677 0
54.99999999828815 14.99999999829921 0
55.00000000002726 85.00000000004491 0
65.00000000002633 19.9999999999346 0
14.99992261587228 34.99992261604633 0
39.9999863735168 14.99998637356909 0
20.00000000003433 90.00000000000429 0
19.9946352377655 14.99463523777441 0
30.00000000009313 90.00000000001992 0
9.997899540113412 24.99789954022641 0
70.00000000001242 54.99999999983365 0
9.999999857553378 49.99999985780558 0
69.99999999998479 79.99999999992833 0
49.99999986836534 14.99999986840326 0
70.00000000001837 44.99999999983733 0
65.00000000003118 24.99999999990649 0
9.999999999959883 75.0000000001161 0
14.99455696472177 19.99455696476125 0
50.00000000005713 90.00000000004276 0
24.99743161639953 9.997431616426651 0
14.98731695881241 14.98731695883934 0
9.99999999995922 65.00000000018751 0
64.99999999999153 84.9999999999883 0
65.00000000001253 14.99999999996455 0
14.99999999995656 80.00000000004758 0
14.99999999998123 85.00000000002758 0
30.00000000006089 85.00000000003259 0
64.99999999998892 79.99999999996285 0
54.99999998636262 19.99999998634364 0
14.99807020035701 24.99807020043165 0
14.99999982378388 49.99999982403334 0
65.00000000002728 44.99999999984282 0
65.00000000001981 54.99999999984583 0
50.00000000005204 85.00000000005849 0
64.99999999998997 74.99999999993098 0
19.99694391100354 19.99694391101645 0
59.99999999814325 19.99999999808357 0
14.99944627606766 29.99944627619121 0
35.00000000008334 85.00000000005031 0
65.00000000000286 64.99999999987354 0
14.99998259988776 39.99998260009885 0
14.99999996721236 54.99999996746611 0
25.00000000002457 85.00000000001825 0
19.99999999996314 80.00000000003185 0
44.999997358154 14.99999735820403 0
34.99987537054581 14.9998753705865 0
65.00000000003004 39.9999999998504 0
65.00000000003264 29.99999999988361 0
19.99999999999892 85.0000000000184 0
45.00000000007449 85.0000000000645 0
14.99999999993882 65.00000000015838 0
60.00000000000649 85.00000000001791 0
59.99999999861515 14.99999999859265 0
24.99779372221944 14.99779372223231 0
14.99999999994875 75.00000000008201 0
19.99999999769272 59.99999999793532 0
59.99999999996285 39.99999999978294 0
60.00000000002767 54.99999999986341 0
19.99999790995886 44.99999791018696 0
40.00000000006757 80.00000000008055 0
34.99991690291461 19.99991690294459 0
60.00000000000919 64.99999999991256 0
55.00000000001982 80.00000000004206 0
19.99990817519508 34.99990817534197 0
19.99870167226331 24.99870167230316 0
19.99999999994527 75.00000000006175 0
30.00000000001848 80.0000000000486 0
24.99999999998656 80.00000000003645 0
59.99999999857108 24.99999999847568 0
65.00000000002403 49.99999999984301 0
19.99999997557589 54.99999997582566 0
49.99999964656494 19.99999964657863 0
59.99999999999902 74.99999999997966 0
39.99997672628075 19.99997672632017 0
59.99999999927753 29.99999999914497 0
45.00000000005899 80.00000000007988 0
60.00000000000257 80.00000000000306 0
29.99960177822227 19.99960177823387 0
24.99858947858601 19.99858947859263 0
14.99999999994639 70.00000000012452 0
24.99999999677778 59.9999999970113 0
40.0000000000285 75.00000000009547 0
34.99993402711528 24.9999340271403 0
60.00000000003238 49.99999999985504 0
55.0000000000129 75.00000000002916 0
24.99930447967798 24.99930447969964 0
19.99999999945301 64.99999999966276 0
19.99951573083558 29.99951573092648 0
24.99999999995642 75.00000000006035 0
54.99999996317344 24.99999996311136 0
35.00000000004779 80.00000000006672 0
60.00000000001923 59.99999999988493 0
19.99997731780434 39.99997731799856 0
59.99999999999876 44.9999999998166 0
60.00000000000222 69.99999999994833 0
44.9999952393364 19.99999523936708 0
19.99999961811834 49.99999961836168 0
50.00000000004059 80.00000000006516 0
59.99999999961883 34.99999999945668 0
19.99999999987837 70.00000000004333 0
54.99999999846663 44.99999999829157 0
24.99999748948212 44.99999748969601 0
55.00000000002233 59.99999999992831 0
55.0000000000091 70.00000000000423 0
29.99999999997919 75.00000000007101 0
50.00000000002531 75.00000000006551 0
24.99999999931303 64.99999999951365 0
35.00000000000448 75.00000000008519 0
24.9997104244136 29.99971042447892 0
24.99998357204126 39.99998357221637 0
54.99999998575285 34.99999998560104 0
49.99999946394628 24.99999946391275 0
39.99998057374197 24.99998057376126 0
24.99999995411235 54.99999995435294 0
54.99999999933104 49.99999999916844 0
45.00000000003006 75.00000000008733 0
29.99969944162233 24.99969944164528 0
54.9999999448905 29.9999999447788 0
24.99999999982317 69.99999999997823 0
29.99999999375112 59.99999999396808 0
49.99999995905485 44.99999995891343 0
29.99999779609265 44.99999779627726 0
34.99995633865154 29.9999563386869 0
39.99999999997974 70.00000000010392 0
50.00000000000867 70.00000000005264 0
34.99999999995759 70.00000000009734 0
55.00000000001184 64.99999999996822 0
24.99990207324981 34.99990207337265 0
54.99999999983805 54.99999999970473 0
54.99999998991633 39.99999998974821 0
44.99999484107835 24.99999484107219 0
29.99999999989076 70.00000000003739 0
24.99999933027016 49.99999933050108 0
29.99984691318444 29.99984691323904 0
49.99999945733014 29.99999945724415 0
49.99999999907516 54.99999999899809 0
49.99999999998936 65.00000000001201 0
44.99999710752877 29.99999710748256 0
29.99999942180373 49.99999942201046 0
49.99999988608826 39.99999988594722 0
39.99999999974085 64.99999999989102 0
39.99998523149407 29.99998523149348 0
49.99999998464228 49.99999998453023 0
29.99999986819878 54.99999986841704 0
49.99999960240075 34.99999960228001 0
29.99998633480065 39.99998633494546 0
29.99993756285308 34.99993756295181 0
44.99999999998542 70.00000000007027 0
34.99999999921567 64.99999999938926 0
29.99999999864096 64.99999999882733 0
34.99999992939318 54.99999992957188 0
34.99999810145778 44.99999810157811 0
44.99999993704113 49.99999993701019 0
49.9999999997658 59.99999999974474 0
34.99997194202714 34.99997194208369 0
44.9999999998775 64.99999999996544 0
39.99999049443899 34.9999904944294 0
39.99999999463323 59.99999999476827 0
44.99999713079237 34.99999713072068 0
44.99999871870678 39.99999871863021 0
34.99999998056552 59.99999998074554 0
44.99999998645921 54.99999998647614 0
44.99999999729004 59.99999999734794 0
39.99999573741242 39.99999573741961 0
39.99999997004164 54.9999999701447 0
44.99999945073797 44.99999945068 0
34.99998839539805 39.99998839548256 0
34.99999947177626 49.99999947192254 0
39.99999968569409 49.99999968575852 0
39.99999815115536 44.99999815118723 0
2 21 0 151
455
456
457
458
459
460
461
462
463
464
465
466
467
468
469
470
471
472
473
474
475
476
477
478
479
480
481
482
483
484
485
486
487
488
489
490
491
492
493
494
495
496
497
498
499
500
501
502
503
504
505
506
507
508
509
510
511
512
513
514
515
516
517
518
519
520
521
522
523
524
525
526
527
528
529
530
531
532
533
534
535
536
537
538
539
540
541
542
543
544
545
546
547
548
549
550
551
552
553
554
555
556
557
558
559
560
561
562
563
564
565
566
567
568
569
570
571
572
573
574
575
576
577
578
579
580
581
582
583
584
585
586
587
588
589
590
591
592
593
594
595
596
597
598
599
600
601
602
603
604
605
3.755524287563125 -4.417582327086145 0
23.03376653951044 -5.390517188874715 0
45.03989455609389 -5.412749236254624 0
64.57140642498067 -3.428304605613889 0
-8.649327972987125 -7.370660600047131 0
84.61728767113939 -6.593845023798124 0
100.3798344422303 -10.16677213271325 0
-24.17422863905158 -10.86656554670298 0
-40.90638640187927 -14.69581401290987 0
-0.08698148336502154 -26.89015190058632 0
21.26111403260752 -31.45314044513413 0
38.94449812067866 -30.60393845979843 0
61.13673982564636 -30.8330284490326 0
80.65973526831151 -31.51840708844269 0
113.9458248023327 -14.59518662283683 0
-53.76121274314465 -17.72122778438881 0
127.6162384258419 -18.1910435734811 0
-62.05699052056143 -17.46333935863861 0
-29.53434815845313 -31.61756799392654 0
90.14088925241634 -31.44908926401637 0
99.8140519140115 -31.21139699250957 0
-74.08520984801137 -22.19049717341023 0
140.3354028449687 -21.72977608065814 0
109.7940972305116 -31.1171445068954 0
-89.54953081260571 -25.01736671471646 0
-57.45531112020372 -29.23878056717813 0
-48.36670085903852 -30.75703898044061 0
152.4499297142254 -22.35834430461709 0
119.7156413419954 -31.50408716955136 0
-102.4144375658175 -25.27404735079962 0
165.5582765816297 -30.70304783191969 0
-20.92260275658191 -31.53159968414598 0
138.5592008328997 -29.68443056594441 0
-118.2841427393528 -31.57384149048598 0
-80.43323902549901 -31.76222458708167 0
13.24429175720457 -4.956078479584823 0
0.3389906340024411 -3.561012176320483 0
39.62054349843509 -5.469724901780445 0
34.09119526037026 -5.497670518007736 0
55.73275709647683 -5.068502782165805 0
74.60250047541443 -5.66077488105113 0
-126.7400882002322 -32.27685940480272 0
-13.53907544072481 -8.560029621601496 0
-29.65278069433061 -12.03887055968714 0
89.72446796423132 -8.090647754082207 0
104.7709842143759 -9.471191400157879 0
176.0619827852858 -31.77346218762714 0
-132.2901277371992 -32.11597839645468 0
-98.49731805473262 -32.28607749697179 0
183.5922775263872 -32.82203699587929 0
150.8703670419885 -30.68187149035848 0
-97.01263651853665 -25.57789379423946 0
95.49622263598468 -9.359920272058623 0
109.2519427886177 -12.56578148161909 0
120.7174908213014 -16.69305446331846 0
133.7507103364253 -19.77402160189786 0
147.2643479727605 -23.20617188565789 0
156.9816992850103 -25.41091619002369 0
7.566007765337583 -10.81897169572569 0
32.97025476434444 -11.13425674085201 0
84.05926327149488 -10.58359401159795 0
-7.03908927462774 -12.39483300499392 0
-23.31980851500926 -17.10101465398577 0
96.94669472651543 -15.51350592779686 0
103.8009225011977 -14.63206154705336 0
80.88299048606139 -23.66710302226894 0
-69.22350557150125 -30.77649197084847 0
129.0025747623223 -31.67130702458188 0
-38.54445890012263 -29.6371023382537 0
-11.84681952005608 -30.5160449052308 0
71.04391665947053 -31.4965722098292 0
11.9418645516545 -30.55543014650542 0
30.16467943590093 -31.33602761988877 0
49.36470220539723 -28.61634731037837 0
119.8546144068975 -23.66751862936799 0
89.62172764161497 -23.32950020132771 0
8.559179345996522 -4.868788256419049 0
79.74586105485136 -5.772987191665576 0
68.22093571964331 -6.044646819068944 0
17.90182937210985 -5.136606354927878 0
28.49562122409891 -5.488924524301689 0
60.86312639740748 -4.385384819337538 0
50.39103422059792 -5.302613486633489 0
-57.88675860961902 -22.11324989027239 0
39.13586049511236 -11.0992944637878 0
-89.66505790841627 -32.30679903171196 0
-22.09515195060505 -23.89158305565626 0
-2.986065930157141 -6.433093326015758 0
127.9780166934629 -24.5867328937301 0
-18.67217158126765 -9.77435163129006 0
-35.19449520938303 -13.34337857869911 0
-46.83495450368724 -16.02279823070961 0
-67.55204031223998 -19.73979527018289 0
-81.57250491844484 -23.94168456428727 0
-107.7915626200887 -30.14609945588904 0
-57.97889420512224 -15.46996231726694 0
98.70455538830461 -22.87535390147566 0
158.9111439027071 -34.24963247461415 0
133.1472529371322 -24.4403139288189 0
190.3862372456322 -32.77109641692067 0
62.40953294304319 -9.147334046005779 0
56.65070101161835 -10.26432053420832 0
14.67136313691641 -10.62539081336731 0
31.6949657095539 -16.98633866472998 0
72.05742126775056 -23.72451177359739 0
74.10830949187356 -11.14538247288603 0
8.162898263214217 -20.0416102497777 0
54.30846941066885 -21.09867094195701 0
-34.8353742446 -19.61147691635268 0
-3.711468532833838 -10.90724910518172 0
-8.251920324933685 -20.0671009564076 0
-47.31707376770699 -22.88276348124901 0
-17.20494253018166 -15.8911540060176 0
45.15651710713578 -10.88647119488757 0
-29.0357825014876 -24.46621120502933 0
26.77243265092709 -11.10997743187898 0
88.16045780259434 -14.79138016571616 0
30.67670283879218 -23.54195299101614 0
-14.63167953081217 -22.55106769362881 0
109.2893660874569 -21.39696403207206 0
12.15068186950378 -8.645078353047566 0
79.85772693035808 -11.03563075224287 0
-40.67814653607446 -21.52057969924753 0
63.02829970691764 -23.01906039940216 0
-29.16455674821388 -18.21073415517216 0
1.904193823443422 -8.869046916146736 0
-64.82135981194305 -23.84139698171947 0
-52.19958443353364 -23.21780837008399 0
15.02603090812661 -22.67171269911158 0
42.64610461017333 -21.34250750918521 0
-0.3114452327976476 -19.4599104538337 0
-0.7131918287084673 -13.04362613967395 0
69.48994057251555 -10.87605786918107 0
20.72626970071202 -10.8053400261743 0
12.31981893389651 -14.58489539783456 0
37.69786227410598 -21.40554691921862 0
50.89548747523963 -10.54398396079468 0
73.1224862097351 -16.93685451533661 0
80.38852244107235 -16.78734756007498 0
24.85911614930462 -17.05590114818043 0
-3.821602314843488 -16.63627508110389 0
38.42496677146279 -16.67821833123015 0
-33.86825768843383 -24.3239755481853 0
-11.59039015050563 -14.2074988157935 0
3.289159100145924 -16.23289873881226 0
65.08014167939824 -15.14450413452239 0
57.3946376761487 -16.55332196511354 0
46.48079355863171 -17.16360123272215 0
18.18021384597716 -16.33809288757012 0
22.94851864109469 -23.72315727508025 0
51.62029612838505 -14.54561560930419 0
$EndNodes
$Elements
7 623 1 623
1 1 1 16
1 1 8 
2 8 9 
3 9 10 
4 10 11 
5 11 12 
6 12 13 
7 13 14 
8 14 15 
9 15 16 
10 16 17 
11 17 18 
12 18 19 
13 19 20 
14 20 21 
15 21 22 
16 22 2 
1 4 1 14
17 4 43 
18 43 44 
19 44 45 
20 45 46 
21 46 47 
22 47 48 
23 48 49 
24 49 50 
25 50 51 
26 51 52 
27 52 53 
28 53 54 
29 54 55 
30 55 5 
1 5 1 20
31 5 56 
32 56 57 
33 57 58 
34 58 59 
35 59 60 
36 60 61 
37 61 62 
38 62 63 
39 63 64 
40 64 65 
41 65 66 
42 66 67 
43 67 68 
44 68 69 
45 69 70 
46 70 71 
47 71 72 
48 72 73 
49 73 74 
50 74 1 
1 7 1 44
51 6 104 
52 104 105 
53 105 106 
54 106 107 
55 107 108 
56 108 109 
57 109 110 
58 110 111 
59 111 112 
60 112 113 
61 113 114 
62 114 115 
63 115 116 
64 116 117 
65 117 118 
66 118 119 
67 119 120 
68 120 121 
69 121 122 
70 122 123 
71 123 124 
72 124 125 
73 125 126 
74 126 127 
75 127 128 
76 128 129 
77 129 130 
78 130 131 
79 131 132 
80 132 133 
81 133 134 
82 134 135 
83 135 136 
84 136 137 
85 137 138 
86 138 139 
87 139 140 
88 140 141 
89 141 142 
90 142 143 
91 143 144 
92 144 145 
93 145 146 
94 146 7 
2 20 3 320
95 446 447 442 449 
96 438 421 440 447 
97 361 357 319 312 
98 439 407 426 441 
99 441 448 451 439 
100 374 313 321 353 
101 454 453 452 436 
102 353 359 402 374 
103 313 286 337 321 
104 453 454 450 437 
105 349 372 322 314 
106 389 392 375 351 
107 208 192 218 190 
108 351 375 323 311 
109 348 377 325 289 
110 245 262 224 189 
111 219 258 186 233 
112 199 209 183 216 
113 336 307 244 264 
114 433 445 442 425 
115 440 421 409 432 
116 390 400 432 409 
117 182 222 37 38 
118 35 36 200 176 
119 189 40 41 206 
120 177 255 264 221 
121 218 217 187 190 
122 55 5 56 209 
123 382 360 400 390 
124 253 294 179 226 
125 309 310 278 273 
126 250 291 180 223 
127 249 259 200 222 
128 189 206 193 245 
129 352 351 311 327 
130 50 195 228 49 
131 2 23 191 22 
132 3 42 206 41 
133 252 260 197 227 
134 247 293 195 220 
135 189 224 39 40 
136 297 182 224 262 
137 293 247 327 311 
138 401 370 363 362 
139 333 327 247 291 
140 187 226 71 72 
141 258 219 276 308 
142 312 319 249 297 
143 314 322 252 294 
144 362 363 338 282 
145 395 429 419 402 
146 241 178 275 276 
147 291 250 310 333 
148 179 227 69 70 
149 257 218 192 240 
150 432 408 425 440 
151 222 182 297 249 
152 242 184 273 278 
153 227 179 294 252 
154 286 313 356 298 
155 223 53 54 199 
156 209 199 54 55 
157 400 366 408 432 
158 351 352 373 389 
159 197 174 67 68 
160 200 36 37 222 
161 220 180 291 247 
162 216 278 310 250 
163 208 190 73 74 
164 62 63 170 234 
165 339 364 384 350 
166 301 246 364 339 
167 225 176 214 251 
168 230 14 15 198 
169 43 185 193 4 
170 180 52 53 223 
171 294 253 302 314 
172 176 225 34 35 
173 229 174 210 261 
174 226 187 217 253 
175 182 38 39 224 
176 373 352 328 350 
177 337 286 267 215 
178 285 324 214 259 
179 263 256 170 231 
180 253 217 305 302 
181 265 298 329 266 
182 349 320 363 370 
183 360 344 366 400 
184 179 70 71 226 
185 298 265 267 286 
186 289 325 210 260 
187 244 185 221 264 
188 255 287 336 264 
189 243 196 246 301 
190 220 51 52 180 
191 190 187 72 73 
192 174 229 66 67 
193 313 374 396 356 
194 28 29 205 188 
195 223 199 216 250 
196 68 69 227 197 
197 186 258 215 202 
198 13 14 230 175 
199 311 323 270 293 
200 238 204 272 303 
201 344 360 334 284 
202 274 300 288 275 
203 188 212 274 237 
204 176 200 259 214 
205 392 389 416 410 
206 261 296 201 229 
207 239 175 254 304 
208 232 203 267 265 
209 356 396 415 380 
210 379 285 319 357 
211 191 233 21 22 
212 329 290 211 266 
213 372 349 370 393 
214 308 337 215 258 
215 208 8 9 192 
216 201 231 64 65 
217 233 186 20 21 
218 51 220 195 50 
219 296 261 280 315 
220 185 43 44 221 
221 265 266 173 232 
222 298 356 380 329 
223 186 202 19 20 
224 203 232 17 18 
225 191 23 24 207 
226 393 412 348 372 
227 386 417 381 343 
228 259 249 319 285 
229 415 397 358 380 
230 411 388 409 421 
231 255 303 318 287 
232 218 257 305 217 
233 314 302 320 349 
234 202 203 18 19 
235 417 386 406 423 
236 422 426 397 415 
237 324 285 379 346 
238 358 345 330 290 
239 317 354 248 295 
240 412 393 418 431 
241 388 411 346 379 
242 202 215 267 203 
243 408 410 433 425 
244 415 396 419 422 
245 431 430 394 412 
246 401 418 393 370 
247 290 329 380 358 
248 345 362 282 330 
249 173 16 17 232 
250 201 65 66 229 
251 260 252 322 289 
252 346 376 281 324 
253 268 271 205 235 
254 315 326 263 296 
255 394 386 343 377 
256 454 448 444 450 
257 171 235 30 31 
258 447 446 420 438 
259 424 429 395 414 
260 63 64 231 170 
261 345 358 397 367 
262 426 407 367 397 
263 431 439 451 430 
264 437 450 405 427 
265 426 422 443 441 
266 289 322 372 348 
267 421 438 387 411 
268 343 381 315 280 
269 333 310 309 328 
270 174 197 260 210 
271 385 414 341 378 
272 387 413 342 376 
273 230 198 211 269 
274 198 173 266 211 
275 198 15 16 173 
276 448 454 436 451 
277 404 434 391 365 
278 295 251 281 317 
279 420 427 399 413 
280 284 334 272 213 
281 231 201 296 263 
282 436 452 423 406 
283 423 428 398 417 
284 316 331 268 299 
285 453 449 435 452 
286 245 193 185 244 
287 312 307 336 361 
288 413 387 438 420 
289 292 338 363 320 
290 206 42 4 193 
291 355 340 279 326 
292 376 346 411 387 
293 251 214 324 281 
294 435 445 404 428 
295 439 431 418 407 
296 330 282 254 269 
297 365 391 371 340 
298 377 348 412 394 
299 414 385 405 424 
300 403 416 389 373 
301 354 317 342 368 
302 427 420 446 437 
303 297 262 307 312 
304 280 325 377 343 
305 401 367 407 418 
306 261 210 325 280 
307 235 171 299 268 
308 248 299 171 236 
309 376 342 317 281 
310 406 430 451 436 
311 386 394 430 406 
312 379 357 369 388 
313 362 345 367 401 
314 373 350 384 403 
315 340 371 335 279 
316 279 335 306 256 
317 355 381 417 398 
318 410 416 434 433 
319 29 30 235 205 
320 368 378 316 354 
321 413 399 368 342 
322 369 390 409 388 
323 331 316 378 341 
324 262 245 244 307 
325 309 339 350 328 
326 347 382 390 369 
327 228 195 293 270 
328 188 237 27 28 
329 378 368 399 385 
330 299 248 354 316 
331 428 423 452 435 
332 382 318 334 360 
333 429 424 444 443 
334 449 453 437 446 
335 427 405 385 399 
336 340 355 398 365 
337 326 315 381 355 
338 365 398 428 404 
339 357 361 347 369 
340 335 364 246 306 
341 371 384 364 335 
342 410 408 366 392 
343 213 270 323 284 
344 256 263 326 279 
345 302 305 292 320 
346 450 444 424 405 
347 295 248 236 194 
348 171 31 32 236 
349 233 191 207 219 
350 331 283 271 268 
351 284 323 375 344 
352 254 282 338 304 
353 414 395 383 341 
354 392 366 344 375 
355 273 301 339 309 
356 283 331 341 383 
357 382 347 287 318 
358 305 257 277 292 
359 251 295 194 225 
360 383 359 332 283 
361 396 374 402 419 
362 447 440 425 442 
363 33 34 225 194 
364 238 46 47 204 
365 327 333 328 352 
366 391 403 384 371 
367 207 241 276 219 
368 212 271 283 332 
369 290 330 269 211 
370 271 212 188 205 
371 448 441 443 444 
372 33 194 236 32 
373 419 429 443 422 
374 238 177 45 46 
375 221 44 45 177 
376 332 300 274 212 
377 269 254 175 230 
378 434 416 403 391 
379 10 240 192 9 
380 300 332 359 353 
381 288 300 353 321 
382 183 242 278 216 
383 359 383 395 402 
384 241 25 26 178 
385 48 172 204 47 
386 337 308 288 321 
387 26 27 237 178 
388 239 12 13 175 
389 241 207 24 25 
390 277 304 338 292 
391 318 303 272 334 
392 274 275 178 237 
393 308 276 275 288 
394 204 172 213 272 
395 256 306 234 170 
396 240 10 11 181 
397 239 181 11 12 
398 301 273 184 243 
399 449 442 445 435 
400 361 336 287 347 
401 48 49 228 172 
402 304 277 181 239 
403 306 246 196 234 
404 303 255 177 238 
405 270 213 172 228 
406 209 56 57 183 
407 242 183 57 58 
408 242 58 59 184 
409 243 184 59 60 
410 257 240 181 277 
411 243 60 61 196 
412 234 196 61 62 
413 74 1 8 208 
414 445 433 434 404 
2 21 2 4
415 103 104 102 
416 104 103 6 
417 146 147 148 
418 147 146 7 
2 21 3 205
419 507 499 571 518 
420 598 565 595 516 
421 577 566 481 523 
422 464 526 583 561 
423 603 583 604 594 
424 551 530 474 475 
425 530 520 468 474 
426 489 548 479 540 
427 109 502 96 97 
428 528 562 602 584 
429 469 508 519 574 
430 572 527 466 590 
431 151 143 144 150 
432 522 543 529 483 
433 476 521 581 547 
434 505 138 139 552 
435 528 584 590 466 
436 583 603 589 561 
437 465 527 572 604 
438 526 465 604 583 
439 98 99 107 108 
440 530 571 593 520 
441 532 576 515 460 
442 595 565 464 585 
443 505 511 477 487 
444 520 559 525 468 
445 97 98 108 109 
446 578 562 528 467 
447 467 525 559 578 
448 520 593 592 559 
449 489 540 114 115 
450 464 565 573 524 
451 521 476 548 489 
452 514 570 594 558 
453 106 107 99 100 
454 556 601 600 555 
455 78 79 462 544 
456 81 82 463 545 
457 83 84 470 546 
458 503 549 112 113 
459 87 88 476 547 
460 75 76 459 542 
461 89 90 479 548 
462 93 94 488 549 
463 521 489 115 116 
464 544 462 517 567 
465 549 488 111 112 
466 505 487 137 138 
467 481 480 117 118 
468 485 140 141 501 
469 523 481 118 119 
470 522 483 135 136 
471 475 133 134 478 
472 483 478 134 135 
473 486 473 120 121 
474 475 474 132 133 
475 524 486 121 122 
476 599 585 464 561 
477 474 468 131 132 
478 542 459 516 564 
479 480 521 116 117 
480 487 522 136 137 
481 526 464 123 124 
482 473 523 119 120 
483 527 465 125 126 
484 528 466 127 128 
485 525 467 129 130 
486 464 524 122 123 
487 468 525 130 131 
488 465 526 124 125 
489 466 527 126 127 
490 467 528 128 129 
491 501 141 142 504 
492 503 113 114 540 
493 537 591 556 494 
494 483 529 574 478 
495 485 552 139 140 
496 486 541 569 473 
497 524 573 541 486 
498 551 518 571 530 
499 110 111 488 496 
500 521 480 538 581 
501 22 495 532 2 
502 565 598 567 573 
503 601 605 602 562 
504 475 478 574 551 
505 523 473 569 597 
506 143 151 152 554 
507 2 532 460 169 
508 480 481 566 582 
509 457 568 591 537 
510 573 567 517 541 
511 456 534 557 588 
512 480 582 470 538 
513 533 495 22 21 
514 8 1 491 455 
515 576 532 495 560 
516 490 531 513 575 
517 472 538 470 550 
518 531 490 10 9 
519 534 11 10 490 
520 535 493 14 13 
521 535 13 12 456 
522 534 456 12 11 
523 537 17 16 457 
524 537 494 18 17 
525 536 19 18 494 
526 536 458 20 19 
527 533 21 20 458 
528 533 555 600 587 
529 544 497 77 78 
530 545 498 80 81 
531 546 463 82 83 
532 582 566 546 470 
533 550 470 84 85 
534 547 472 86 87 
535 548 476 88 89 
536 533 458 536 555 
537 549 484 92 93 
538 571 515 576 593 
539 568 457 492 539 
540 542 491 1 75 
541 562 578 600 601 
542 554 152 153 504 
543 587 560 495 533 
544 505 552 485 512 
545 588 570 535 456 
546 143 554 504 142 
547 541 517 579 569 
548 598 516 459 497 
549 588 557 589 603 
550 571 499 460 515 
551 503 540 479 506 
552 461 519 508 500 
553 169 460 499 168 
554 168 499 507 167 
555 574 529 509 469 
556 167 507 461 166 
557 76 77 497 459 
558 166 461 500 165 
559 165 500 508 164 
560 164 508 469 163 
561 79 80 498 462 
562 163 469 509 162 
563 487 477 510 553 
564 162 509 471 161 
565 161 471 510 160 
566 160 510 477 159 
567 85 86 472 550 
568 159 477 511 158 
569 158 511 482 157 
570 534 490 575 557 
571 518 551 574 519 
572 157 482 512 156 
573 539 596 602 568 
574 90 91 506 479 
575 539 514 558 596 
576 156 512 485 155 
577 91 92 484 506 
578 15 14 493 492 
579 16 15 492 457 
580 155 485 501 154 
581 599 513 580 586 
582 516 595 586 564 
583 154 501 504 153 
584 531 455 580 513 
585 513 599 561 589 
586 94 95 496 488 
587 96 502 496 95 
588 602 605 591 568 
589 109 110 496 502 
590 586 580 542 564 
591 545 463 577 563 
592 605 601 556 591 
593 492 493 514 539 
594 497 544 567 598 
595 509 529 543 471 
596 471 543 553 510 
597 512 482 511 505 
598 9 8 455 531 
599 563 579 498 545 
600 566 577 463 546 
601 538 472 547 581 
602 593 576 560 592 
603 604 572 558 594 
604 462 498 579 517 
605 542 580 455 491 
606 523 597 563 577 
607 599 586 595 585 
608 597 569 579 563 
609 513 589 557 575 
610 549 503 506 484 
611 600 578 559 592 
612 572 590 596 558 
613 487 553 543 522 
614 602 596 590 584 
615 100 101 105 106 
616 101 102 104 105 
617 150 144 145 149 
618 146 148 149 145 
619 507 518 519 461 
620 493 535 570 514 
621 494 556 555 536 
622 560 587 600 592 
623 570 588 603 594 
$EndElements
