$MeshFormat
4.1 0 8
$EndMeshFormat
$PhysicalNames
6
1 201 "base_boundary"
1 202 "upstream_face"
1 203 "dam_foundation_interface"
1 204 "crest_boundary"
2 101 "dam_body"
2 102 "foundation_body"
$EndPhysicalNames
$Entities
7 8 2 0
1 0 0 0 0 
2 80 0 0 0 
3 80 100 0 0 
4 70 100 0 0 
5 0 100 0 0 
6 -200 -40 0 0 
7 240 -40 0 0 
1 0 0 0 80 0 0 1 203 2 1 -2 
2 80 0 0 80 100 0 0 2 2 -3 
3 70 100 0 80 100 0 0 2 3 -4 
4 0 100 0 70 100 0 1 204 2 4 -5 
5 0 0 0 0 100 0 1 202 2 5 -1 
6 -200 -40 0 0 0 0 0 2 1 -6 
7 -200 -40 0 240 -40 0 1 201 2 6 -7 
8 80 -40 0 240 0 0 0 2 7 -2 
20 0 0 0 80 100 0 1 101 5 1 2 3 4 5 
21 -200 -40 0 240 0 0 1 102 4 -1 6 7 8 
$EndEntities
$Nodes
17 728 1 728
0 1 0 1
1
0 0 0
0 2 0 1
2
80 0 0
0 3 0 1
3
80 100 0
0 4 0 1
4
70 100 0
0 5 0 1
5
0 100 0
0 6 0 1
6
-200 -40 0
0 7 0 1
7
240 -40 0
1 1 0 15
8
9
10
11
12
13
14
15
16
17
18
19
20
21
22
4.999999999995598 0 0
9.999999999991752 0 0
14.9999999999775 0 0
19.9999999999629 0 0
24.99999999994829 0 0
29.99999999993369 0 0
34.99999999993158 0 0
39.99999999993918 0 0
44.99999999994678 0 0
49.99999999995438 0 0
54.99999999996199 0 0
59.99999999996959 0 0
64.99999999997719 0 0
69.99999999998479 0 0
74.9999999999924 0 0
1 2 0 19
23
24
25
26
27
28
29
30
31
32
33
34
35
36
37
38
39
40
41
80 4.999999999979755 0
80 9.999999999961581 0
80 14.99999999994008 0
80 19.99999999991413 0
80 24.99999999988819 0
80 29.99999999986224 0
80 34.99999999984823 0
80 39.99999999984005 0
80 44.99999999983187 0
80 49.99999999982369 0
80 54.99999999981551 0
80 59.99999999980733 0
80 64.99999999980859 0
80 69.99999999983592 0
80 74.99999999986328 0
80 79.99999999989062 0
80 84.99999999991796 0
80 89.9999999999453 0
80 94.99999999997266 0
1 3 0 1
42
75 100 0
1 4 0 13
43
44
45
46
47
48
49
50
51
52
53
54
55
64.99999999997878 100 0
60.0000000000008 100 0
55.00000000003033 100 0
50.00000000005987 100 0
45.00000000008941 100 0
40.00000000011896 100 0
35.0000000001471 100 0
30.00000000012728 100 0
25.00000000010606 100 0
20.00000000008485 100 0
15.00000000006364 100 0
10.00000000004243 100 0
5.000000000021217 100 0
1 5 0 19
56
57
58
59
60
61
62
63
64
65
66
67
68
69
70
71
72
73
74
0 95.00000000003553 0
0 90.00000000007105 0
0 85.00000000010658 0
0 80.00000000014211 0
0 75.00000000017764 0
0 70.00000000021316 0
0 65.00000000024869 0
0 60.00000000025813 0
0 55.00000000025813 0
0 50.00000000025813 0
0 45.00000000025813 0
0 40.00000000025814 0
0 35.0000000002487 0
0 30.00000000021316 0
0 25.00000000017765 0
0 20.00000000014211 0
0 15.00000000010658 0
0 10.00000000007105 0
0 5.000000000035527 0
1 6 0 29
75
76
77
78
79
80
81
82
83
84
85
86
87
88
89
90
91
92
93
94
95
96
97
98
99
100
101
102
103
-4.67477951154892 -0.934955902309784 0
-9.45882570143876 -1.891765140287752 0
-14.35469256947852 -2.870938513895704 0
-19.36499721869863 -3.872999443739726 0
-24.49241089865389 -4.898482179730779 0
-29.73967129629663 -5.947934259259325 0
-35.10958143756809 -7.021916287513617 0
-40.60500838344026 -8.121001676688051 0
-46.22888350625126 -9.245776701250252 0
-51.98421105314031 -10.39684221062806 0
-57.8740625672186 -11.57481251344372 0
-63.90158309381511 -12.78031661876302 0
-70.06998938737283 -14.01399787747457 0
-76.38257695065582 -15.27651539013116 0
-82.84271351216306 -16.56854270243261 0
-89.45384761086198 -17.89076952217239 0
-96.21951152499588 -19.24390230499917 0
-103.1433143326543 -20.62866286653086 0
-110.2289534625935 -22.0457906925187 0
-117.4802105784474 -23.49604211568948 0
-124.9009588407401 -24.98019176814801 0
-132.4951595853982 -26.49903191707965 0
-140.2668677177359 -28.05337354354717 0
-148.2202278904356 -29.64404557808713 0
-156.3594888272846 -31.27189776545693 0
-164.6889987093266 -32.93779974186532 0
-173.2131993603089 -34.64263987206178 0
-181.9366419908941 -36.38732839817882 0
-190.8639904126377 -38.17279808252754 0
1 7 0 43
104
105
106
107
108
109
110
111
112
113
114
115
116
117
118
119
120
121
122
123
124
125
126
127
128
129
130
131
132
133
134
135
136
137
138
139
140
141
142
143
144
145
146
-190.0000000000323 -40 0
-180.0000000000646 -40 0
-170.0000000000969 -40 0
-160.0000000001292 -40 0
-150.0000000001615 -40 0
-140.0000000001938 -40 0
-130.0000000002261 -40 0
-120.0000000002584 -40 0
-110.0000000002907 -40 0
-100.000000000323 -40 0
-90.00000000035527 -40 0
-80.00000000038756 -40 0
-70.00000000041985 -40 0
-60.00000000045216 -40 0
-50.00000000048445 -40 0
-40.00000000051676 -40 0
-30.00000000054905 -40 0
-20.00000000058134 -40 0
-10.00000000061365 -40 0
-6.459401902247919e-10 -40 0
9.999999999321744 -40 0
19.999999999295 -40 0
29.99999999932177 -40 0
39.99999999935403 -40 0
49.99999999938638 -40 0
59.99999999941866 -40 0
69.99999999945095 -40 0
79.99999999948324 -40 0
89.99999999951552 -40 0
99.99999999954781 -40 0
109.9999999995802 -40 0
119.9999999996124 -40 0
129.9999999996447 -40 0
139.9999999996771 -40 0
149.9999999997093 -40 0
159.9999999997416 -40 0
169.9999999997739 -40 0
179.9999999998062 -40 0
189.9999999998385 -40 0
199.9999999998709 -40 0
209.9999999999031 -40 0
219.9999999999354 -40 0
229.9999999999677 -40 0
1 8 0 23
147
148
149
150
151
152
153
154
155
156
157
158
159
160
161
162
163
164
165
166
167
168
169
230.8902235277629 -37.72255588194073 0
222.0397810717082 -35.50994526792705 0
213.441294359 -33.36032358975 0
205.0875910241228 -31.27189775603069 0
196.9717016289552 -29.2429254072388 0
189.086855459469 -27.27171386486725 0
181.426474942035 -25.35661873550876 0
173.9841685734621 -23.49604214336552 0
166.7537325807829 -21.68843314519573 0
159.7291326848177 -19.93228317120443 0
152.9045101605036 -18.22612754012591 0
146.2741709002233 -16.56854272505582 0
139.8325844002018 -14.95814610005045 0
133.5743776351885 -13.39359440879711 0
127.4943292552297 -11.87358231380742 0
121.5873688962789 -10.39684222406973 0
115.8485677317586 -8.962141932939641 0
110.2731384429773 -7.568284610744328 0
104.8564324080069 -6.214108102001717 0
99.59392874285879 -4.898482185714698 0
94.48123810317119 -3.620309525792798 0
89.51409619994996 -2.37852404998749 0
84.68835795822068 -1.172089489555169 0
2 20 0 373
170
171
172
173
174
175
176
177
178
179
180
181
182
183
184
185
186
187
188
189
190
191
192
193
194
195
196
197
198
199
200
201
202
203
204
205
206
207
208
209
210
211
212
213
214
215
216
217
218
219
220
221
222
223
224
225
226
227
228
229
230
231
232
233
234
235
236
237
238
239
240
241
242
243
244
245
246
247
248
249
250
251
252
253
254
255
256
257
258
259
260
261
262
263
264
265
266
267
268
269
270
271
272
273
274
275
276
277
278
279
280
281
282
283
284
285
286
287
288
289
290
291
292
293
294
295
296
297
298
299
300
301
302
303
304
305
306
307
308
309
310
311
312
313
314
315
316
317
318
319
320
321
322
323
324
325
326
327
328
329
330
331
332
333
334
335
336
337
338
339
340
341
342
343
344
345
346
347
348
349
350
351
352
353
354
355
356
357
358
359
360
361
362
363
364
365
366
367
368
369
370
371
372
373
374
375
376
377
378
379
380
381
382
383
384
385
386
387
388
389
390
391
392
393
394
395
396
397
398
399
400
401
402
403
404
405
406
407
408
409
410
411
412
413
414
415
416
417
418
419
420
421
422
423
424
425
426
427
428
429
430
431
432
433
434
435
436
437
438
439
440
441
442
443
444
445
446
447
448
449
450
451
452
453
454
455
456
457
458
459
460
461
462
463
464
465
466
467
468
469
470
471
472
473
474
475
476
477
478
479
480
481
482
483
484
485
486
487
488
489
490
491
492
493
494
495
496
497
498
499
500
501
502
503
504
505
506
507
508
509
510
511
512
513
514
515
516
517
518
519
520
521
522
523
524
525
526
527
528
529
530
531
532
533
534
535
536
537
538
539
540
541
542
40.4247327924089 57.23499990294882 0
51.32593009530618 29.09755889409735 0
26.89709452800321 37.16698287262202 0
26.04523419149314 74.27450591176083 0
56.51596780584551 75.49723389187878 0
59.3274855043247 47.53353690233797 0
19.27922511711212 55.56159764637603 0
33.42297009266301 18.62706505229706 0
62.46524938650602 15.90639676117971 0
41.33372580912616 83.51142632832911 0
16.53494231789606 16.26007027105204 0
41.78015806108488 41.23739077439738 0
64.65218277798161 64.12999574694211 0
63.19787865867646 35.8871102570969 0
49.84449885127088 14.37748283175444 0
13.99757019050046 87.34851193503218 0
64.70128957976594 85.74339874693226 0
14.8360907255348 43.35313431387823 0
12.82062986551557 67.7508167761864 0
11.53684391206625 30.87977194894013 0
42.7159528026863 71.84205012035902 0
53.04903524439165 59.94817506901984 0
28.36581973326893 65.25560329646443 0
51.77847291398856 89.07722698023325 0
26.60323896749691 87.39221446207696 0
30.08768352809429 48.97681745747107 0
37.75718071060301 28.85884367446661 0
68.44975501752569 72.53674236298268 0
27.94363817372231 10.56503912941216 0
52.14917210408666 42.40360163334164 0
25.49464772041551 26.44540435696154 0
68.68057353558433 51.74046213956534 0
68.38064758832684 25.12532847545167 0
47.57737488299733 51.34192869886174 0
36.07711789917163 73.01424237908238 0
9.741934215794355 54.62254684417454 0
39.61730413456308 9.563891125336578 0
70.6356523241972 9.1561419950306 0
10.08284527177818 10.70637077539714 0
69.85396130253733 44.59695091940196 0
10.15598283801829 76.8673004367602 0
55.85169322243213 9.148258254877934 0
60.93972432223197 26.2831838604012 0
8.386437052959838 23.1273472596817 0
43.77870851326934 21.88067086344828 0
23.24824983960895 45.44303223883772 0
43.57622592296445 91.06878503073747 0
56.47922241941399 67.17553008492476 0
47.60766209230099 79.08496337532 0
60.5714547890594 91.33255203567114 0
19.14163881185257 91.64728721436705 0
19.39490990857157 7.875473670585459 0
8.711364142495601 36.41669518555947 0
7.862302400946738 92.90366231767673 0
71.99810994229084 92.52089213133934 0
21.70062654481244 71.15348265562024 0
53.31129648132764 22.28777372902865 0
8.094831495513738 61.52171465465209 0
70.6237523435054 67.79668464102539 0
32.63717964538922 40.97341476912966 0
59.95477479905162 40.76640650481058 0
35.27458358992133 91.14292456561725 0
72.2360290837579 18.42507224862578 0
60.75857815452335 57.09730430065858 0
37.80232155947314 49.18691953362134 0
59.40707579436864 83.25585182575198 0
22.63231783840576 82.92570010981747 0
71.56044270769925 33.8271946890225 0
43.73301373272215 35.81150976019684 0
70.99149525830367 81.74852921560236 0
17.9283105043224 37.56000318972507 0
31.16784173591934 30.09773655623506 0
33.40924062326411 56.1859097741026 0
45.08873470702173 63.52459401157117 0
57.90782900600493 35.31686231295236 0
32.46314930484285 81.40502031195402 0
71.93037470299646 59.08306423063258 0
31.23347586187421 6.754515340781055 0
8.99372766054716 84.49764872804548 0
6.929864227862237 46.19526387178319 0
26.39524708176144 18.98005693067635 0
63.43212363632529 7.441989546262008 0
17.38183737370682 23.61590467799552 0
48.9585452008224 71.94760268795082 0
16.26260408564841 61.69076479740909 0
8.27472390286594 68.70998492756945 0
15.97394359517681 47.4322036194753 0
62.39816562634346 69.9309377705535 0
41.09132374563012 17.17899629697803 0
7.249714454016169 29.50015524450246 0
63.10741561622758 79.90774966314179 0
21.37707912907868 31.96428946838705 0
54.13229358208928 52.13797876241598 0
40.09057045587942 75.05489493461972 0
7.836438375679165 14.4537840030373 0
31.02450117727823 70.14226262978711 0
25.77256818827587 61.58218093819018 0
36.99097620115057 35.96773511510852 0
55.52547341408597 15.73368262757251 0
64.66261469725843 95.30994048519986 0
15.21708994398585 95.50920188862609 0
64.14472743939514 48.39844728278567 0
52.90006207233805 93.82766836063934 0
27.00526545741439 95.91866061612559 0
25.18312845002707 53.80001690312453 0
72.42796930886941 49.35283011764733 0
46.03315128544396 85.22650727447734 0
48.25274598643164 44.21661716507468 0
32.64641718131875 14.2797416059904 0
53.93004321133612 46.0581136552639 0
34.21657301456232 24.34588506032438 0
44.16672658211979 54.45552171896686 0
74.16266245291368 72.52203391841635 0
51.1349525476997 81.05638397703808 0
73.07039085731381 38.05961036963141 0
17.64203966978169 77.14130399651111 0
44.32831419287813 28.80434149307528 0
5.903914169211932 5.903914358304862 0
25.43903581236418 5.14033206903327 0
65.21819190983463 29.11105202669544 0
63.77181530481526 22.66628549132037 0
66.48147309807347 68.5571037284188 0
75.5375327893716 86.18493915725665 0
28.01871550698682 79.78781029271873 0
49.24524440665407 64.75602110705297 0
18.41914649458134 12.84891829790247 0
74.04263173315738 28.26613338302523 0
42.94198635286598 5.204779817451499 0
64.48258402442416 39.93508618870904 0
52.63034262243612 6.436635523180431 0
14.52184040289851 4.580644292272845 0
66.49282872906242 58.03319727706336 0
35.88958796544204 86.75592028181136 0
22.01792601513962 21.30498155635289 0
75.42234447278206 14.47016231220077 0
5.076661082389914 56.63504454475098 0
51.2412169859354 37.18287983439762 0
20.94850337304027 48.97392039905213 0
75.00401130308107 53.95224330787548 0
58.47562792530549 61.64838709225192 0
13.26609214834809 14.14513549441506 0
65.0742679649027 12.08154602246995 0
58.59009153702632 20.30872196400617 0
31.88616115415525 36.12230173236396 0
48.69579895226181 94.89923810313711 0
39.20824904766998 69.22059839442122 0
38.67329412971914 21.93612186941215 0
5.458684591618631 42.35434673243847 0
32.72330475905287 46.10821597423401 0
63.49394963222402 53.67328499487371 0
28.42176187399924 43.71436459206864 0
66.10771464016115 4.272990171276751 0
29.48315062525838 75.47011235300873 0
29.44160452178858 23.01212303312602 0
35.63667782321988 66.16207573723034 0
15.12747505453835 57.26287980321912 0
5.405150515608893 65.23234718863344 0
75.12251251155925 23.35381884595924 0
44.51584813325941 11.48122483159644 0
5.514381148028738 76.23474261695281 0
51.40259466972982 9.673484237164509 0
19.39459338033345 42.52781836461519 0
39.71520776941421 95.58782654794236 0
3.985364438168544 33.47995806482149 0
4.289631216415902 50.75714741194204 0
40.49274762367877 51.19582559453247 0
55.1308856881601 26.18495353556225 0
58.70088341785389 6.05508191368447 0
36.62317944313595 4.812317941448569 0
68.72527062162729 39.1400572486985 0
5.107351987024383 10.29008309936962 0
4.580346974271725 86.8744775611957 0
66.5427119842186 18.74799645412922 0
74.68930088128775 42.45055044541925 0
37.33545735132831 53.8755579908698 0
48.25458046189269 24.2231736494168 0
48.6908132859885 19.7276342499488 0
13.16364446919907 72.46824807570755 0
13.86594998040611 39.08275677407542 0
75.47421727108427 77.81193306878475 0
13.22943249869226 24.52480904036042 0
36.44929854917164 59.75601944388951 0
26.05241232779663 31.34404242448367 0
12.34471906873189 82.27440402870826 0
29.39827345346079 58.70105999211626 0
17.01943462245803 66.55955034758694 0
15.47148974187056 11.85583565309158 0
12.23835103687328 48.82765840507764 0
38.28314199437416 78.62314599551681 0
58.88192408623753 12.62470537974743 0
4.109799211907879 23.57673038458785 0
30.38060088478304 95.68599364516841 0
75.27813234835659 63.92214710956915 0
4.167598798338278 95.65556195476259 0
75.77285947040997 95.52284806235804 0
57.54343715885606 95.6182835358584 0
22.66020895266591 96.01413148800681 0
46.16997790708034 39.73148048889497 0
55.97709461758626 38.78340943652142 0
40.11650584436439 87.45021568722886 0
30.37727424754238 3.478561203402943 0
55.95973953835335 88.10711322409703 0
60.0247567026032 87.20325183549748 0
18.5330288606118 87.26644691568171 0
23.14292080984384 87.62507442221751 0
61.57846862855821 44.12883257902343 0
24.92986423361813 41.61113805051649 0
69.84191236887887 62.53022237191197 0
60.90092009860054 32.43909633167199 0
43.19887270489508 46.75346989401015 0
42.59592546726236 65.95248306385321 0
14.48999066191052 19.76317473940233 0
36.60819581171504 13.80170775210187 0
47.6021268945865 90.17689604374331 0
70.039554722457 14.64645726510112 0
45.45000661152446 74.7344689234978 0
9.530577145814943 88.54911863401209 0
51.59112884224391 75.46191074356409 0
17.45872502838988 71.78625645580385 0
59.36029580169563 79.33676571549776 0
7.804897646698516 32.37791330974084 0
56.80480947766056 43.843703459018 0
60.38593346006735 37.18925116351852 0
23.2045368962679 77.04141661082578 0
66.78555336095624 81.05545640947281 0
70.22183500921298 87.53594534619313 0
17.68666723340006 4.247278856342676 0
41.13116258879079 25.39633619781748 0
51.70161009123437 18.17845870151962 0
9.724648477511105 40.62545004468909 0
54.91230481042491 72.92908538725993 0
68.45204816348493 94.31975993333208 0
11.39056119714239 94.62785868498915 0
11.31970133530061 59.07505615806195 0
42.43613308134443 79.42819673909202 0
40.99271557068329 37.80463619817844 0
70.38983437256701 30.59404541040369 0
35.36171973440748 31.48098859662878 0
19.45037627155388 95.83209387766404 0
60.57513158305294 95.61780093747863 0
9.703604221336093 64.36485953530882 0
75.4889105856254 81.31482236746464 0
29.70742932345735 90.40041808118015 0
22.26767391864624 40.0928441698961 0
25.5147063599466 67.19685913541153 0
26.97775652009747 47.75604046467992 0
39.50669381477259 63.03214244175724 0
45.82779719100354 68.76814951121945 0
51.57402274208585 54.58217079707599 0
18.70635824827004 46.45296106425125 0
75.09437393697669 68.48568344712216 0
4.481843155387953 38.11420689824165 0
16.93942345506276 33.21269357659114 0
4.001770627521548 72.32333504875609 0
75.54043681678829 19.01071180486713 0
58.19865096088736 52.51104777158196 0
56.42626810820195 57.27749361603551 0
20.41884737209035 60.09428549091003 0
3.24027637880328 60.59286037920023 0
37.2350794882352 41.28546033011672 0
75.80892913381864 90.99107419324217 0
67.42707577366474 48.50291069254195 0
71.41177227842773 76.57002872612189 0
76.00384225703449 33.58842280594056 0
32.43460392690955 62.56142003515111 0
71.05167761452377 71.03003764263607 0
45.72819829257408 17.03225371871585 0
12.77579986377696 34.85664111814443 0
62.54650186078986 60.04537033102199 0
28.69869443469891 26.30327714696458 0
64.32686661499865 75.15790997733411 0
10.06419938131478 5.123830624820275 0
13.24485778306096 77.08761348588045 0
5.851541184522572 82.79271515792966 0
75.37729145705181 59.36940949070241 0
36.36372053407131 9.685700895868397 0
23.04818020012734 15.87054088802039 0
34.98482654554397 50.45677231184624 0
48.50274219270565 58.70096897023614 0
37.67239206892521 45.89193288005207 0
23.68485603288498 58.90521929852978 0
62.3020770241348 82.82420001391017 0
40.85976379375695 32.24458875742386 0
31.14337217141484 52.14071752380958 0
44.2473736867768 95.38920167032721 0
4.01677107679673 47.3762847168961 0
47.57857042432916 32.55605954614375 0
29.33014963627014 18.83054122005653 0
23.96840656413389 9.86809131713318 0
64.55529596031955 90.93461861377412 0
14.96798789486963 91.48494337317176 0
70.67739725984754 21.31245471511629 0
57.88418765932517 29.39948600559626 0
4.356650202796943 19.14302543458091 0
62.07289227231727 4.443024751581353 0
70.42683683084802 55.91145758706078 0
48.65175619867208 5.429099396169799 0
31.41575321534503 85.57671721494383 0
20.29013757957311 26.38323754333145 0
22.00385535308628 36.77908284248102 0
29.48394144225044 40.80293533419297 0
14.86011647671005 8.870199749546174 0
43.76401884257982 60.0646041516375 0
33.87378344626901 2.60292059290051 0
15.45451410358817 28.98824389523362 0
35.02870218948968 95.56711382095367 0
25.86950284257562 70.7024698633323 0
54.38570353264067 63.13548724138836 0
32.12123793951818 10.28734975771702 0
75.29803506362838 9.658421159927164 0
24.25649053193625 92.62295594291858 0
56.57232909377167 92.14504244877227 0
64.69942913906544 44.14870763410887 0
12.07980248750364 91.64172052445448 0
27.13264724124948 84.03230581487102 0
67.21429093368158 34.69585332933988 0
9.657316988105467 18.04927319801745 0
3.588196844942575 27.64389979294269 0
54.64406974382356 32.64067564195006 0
53.08595763859458 12.13663467944503 0
43.09614759110269 88.05006976480865 0
4.137208840109953 91.29180962102711 0
8.22378718189769 79.32494770993912 0
77.19048008291591 50.14559878041491 0
39.62842276510768 91.36079036256108 0
50.84648564233506 48.35210590696315 0
3.008812721616533 69.3225196045727 0
33.99829748161363 77.09265662661437 0
61.59437308539351 9.523144682488216 0
67.52566385183914 77.76269512287016 0
51.20172028869241 84.55329752361206 0
59.41864220174236 75.30614644130733 0
52.51182850717617 69.29382159197553 0
67.55867370068228 91.01054990372042 0
12.41537980514994 63.31181522298773 0
55.62358372831699 48.50617439990265 0
9.534743433009016 27.80796469602235 0
75.22506590432261 4.795347505426639 0
54.71485990239947 79.02190892955115 0
2.406628412887512 4.323146203880727 0
76.14387869724202 46.87510525057395 0
36.96997848407894 82.53929009391044 0
28.49058220745634 14.70197996587165 0
19.02700620007805 17.68671571011039 0
25.70090034521624 22.19544069005831 0
40.49606855893134 12.84823024999687 0
18.27537078287315 20.63141285163841 0
48.58233134287197 10.24691307793745 0
55.39849512831888 83.87189250629635 0
9.338244975992993 73.77092241412689 0
42.76841050214752 76.43904888457054 0
70.51079671537043 4.53871027426273 0
54.98485291913542 41.56579578416219 0
17.951530781985 82.38105000984508 0
66.26651711817449 8.264812658633829 0
2.872443600310695 6.503630404520582 0
17.60503977652062 51.34664949256086 0
10.90794446046119 44.74965379613523 0
22.11384971535826 65.37725811795829 0
58.19433871642664 24.44533737931263 0
21.75927391334114 4.464490208966614 0
13.70062287550166 53.0059735778901 0
8.339380863616741 50.20167720219816 0
58.39474687890513 71.29427997565817 0
4.504745750172116 14.69695372398064 0
7.5047858216364 26.05974204060558 0
60.47980000703098 65.68542233578323 0
7.163310756446415 95.90853842800132 0
72.76211260022376 95.7249842463067 0
41.25970391883668 20.28849895765428 0
37.35554985180182 17.92079009264603 0
28.30831839811828 7.629620659454933 0
76.0744745012268 37.15723479727733 0
2 21 0 186
543
544
545
546
547
548
549
550
551
552
553
554
555
556
557
558
559
560
561
562
563
564
565
566
567
568
569
570
571
572
573
574
575
576
577
578
579
580
581
582
583
584
585
586
587
588
589
590
591
592
593
594
595
596
597
598
599
600
601
602
603
604
605
606
607
608
609
610
611
612
613
614
615
616
617
618
619
620
621
622
623
624
625
626
627
628
629
630
631
632
633
634
635
636
637
638
639
640
641
642
643
644
645
646
647
648
649
650
651
652
653
654
655
656
657
658
659
660
661
662
663
664
665
666
667
668
669
670
671
672
673
674
675
676
677
678
679
680
681
682
683
684
685
686
687
688
689
690
691
692
693
694
695
696
697
698
699
700
701
702
703
704
705
706
707
708
709
710
711
712
713
714
715
716
717
718
719
720
721
722
723
724
725
726
727
728
76.38548234779597 -18.67945001224254 0
56.9723978484978 -21.56784012090955 0
36.94104388140165 -21.56435562678153 0
14.52821407814134 -22.48378518236839 0
-2.586027439378531 -22.13851359883589 0
-14.17314085076025 -18.20139094006086 0
-31.77200746511746 -24.86279983811832 0
109.5389148231087 -25.63509085564787 0
66.11018615718562 -13.82150170803967 0
47.25305237856763 -11.94355450243425 0
27.05381728116032 -11.87957668513091 0
8.554847574297479 -15.75111414401971 0
124.4966363889894 -23.49515404876265 0
86.9247900757352 -12.59100763795657 0
-62.06314241625886 -24.461901484655 0
-11.57114417880209 -12.29911157297299 0
59.87693464911744 -10.12716309185124 0
39.53183053752408 -9.953935969173408 0
19.33578270492449 -9.499669556422791 0
-0.2999620081128846 -9.037412803763907 0
-76.69882714087409 -27.47024344115532 0
140.2536377304308 -31.39896959022653 0
7.112834681006878 -27.65400173822708 0
74.67568962859832 -10.3332655183465 0
29.02343503667547 -29.19175433212578 0
48.87857278656432 -28.99739601466014 0
68.95286870944855 -28.16413800054963 0
-24.87784232302826 -14.11117777279949 0
100.7160213455977 -13.72793842983061 0
84.36502270360653 -29.5360554698102 0
-43.4405269224482 -17.38643033011579 0
116.7441001927844 -19.86232528614084 0
156.6670726341136 -32.39847928127975 0
-90.27362817094928 -32.60147081445712 0
-9.606804188393841 -26.22452289924136 0
-24.51737284567736 -30.50724223689046 0
100.8191693748549 -32.40506271330042 0
90.60356465803712 -11.59905342414099 0
-15.35880167749986 -11.56777905784796 0
-103.6795665700984 -32.94731428966602 0
-35.48737049461159 -17.97875275974899 0
104.3018318461556 -16.47697479673268 0
118.1288764797994 -27.52150680435618 0
-40.15756148770364 -32.09362508003693 0
-1.346056379425118 -31.25213050630346 0
20.61935862611067 -32.00119697298949 0
38.9274698520954 -31.11827503566515 0
58.93871658424575 -31.0031109289047 0
-57.96332677454807 -18.04362590423483 0
64.4677392613783 -4.512509652462627 0
54.31942964577792 -5.40365537959955 0
34.17020079529349 -5.392425901964353 0
44.06510134591935 -5.036588466519857 0
23.97584865363493 -4.921027434672707 0
14.38499045333635 -4.866317067873868 0
-68.66722493073797 -21.29905643613862 0
133.2581297262557 -21.0419544931363 0
162.2357442901115 -32.34823209031421 0
-49.55400789102107 -19.9320102984561 0
80.40886500843237 -6.260802351909894 0
77.60847193618316 -26.43753533942311 0
-7.961264078857497 -19.9386410342011 0
-5.15189689569887 -6.20593070667555 0
83.51114628765806 -21.05292936001512 0
3.467965847784141 -9.815492695708159 0
120.9331161152699 -19.73735807450477 0
69.77565344463036 -7.894482784409405 0
4.171066502245983 -21.16320301685866 0
-23.67549538205222 -21.34278507714773 0
147.4367167790641 -24.16396161439553 0
-83.1969460588565 -23.88963096371904 0
176.9726755461547 -31.4774280515019 0
68.73114151415248 -18.61732870874301 0
49.89374821520028 -19.11901362339233 0
29.75348778527167 -19.16951131829696 0
-110.9495518004623 -29.91670746128771 0
100.6172447883876 -23.22990904405667 0
-97.01901481167823 -26.11451121047127 0
-57.57952036458956 -32.37137388180053 0
-31.66334924192281 -31.96136261501518 0
-63.50033918476201 -17.16895785495623 0
59.65831571732475 -5.005073069253907 0
49.01567171347195 -5.389277349114708 0
39.35102328995404 -5.051361255691111 0
19.32611716240901 -4.765593413741875 0
28.91107057623693 -5.345189357937382 0
85.47011891525599 -6.876086001277685 0
-10.18860972522195 -7.029320720900383 0
184.8934744604137 -32.78347565881755 0
109.1053037395915 -32.80939512011955 0
-4.715353060096935 -12.63796208093706 0
131.7309614218328 -30.917438733007 0
14.50680357759813 -15.83003691686698 0
61.07283136719897 -15.60414893532014 0
41.12328585641066 -15.29426325635577 0
20.66599491563105 -15.07418083900438 0
35.50210590407793 -16.94253291419827 0
55.59953020239437 -16.99939339733496 0
-72.00313747770133 -28.90900501023082 0
72.38864916920835 -14.82933647970032 0
-48.66676378299699 -25.48722882894156 0
-127.392014933796 -32.47665841819752 0
-135.5918200294211 -33.22317424914108 0
148.6343519104162 -31.98594357556687 0
-83.18360979956853 -32.62948103457378 0
1.887723257608425 -16.50416045653753 0
-76.51501999256234 -22.34630222884842 0
140.1793765205474 -22.9883407814628 0
80.46239328017224 -13.70556063741371 0
-0.2743342246326171 -5.251198820787635 0
123.2952916889362 -32.6504066582713 0
8.377920789352851 -21.71095956624021 0
92.33999744093911 -26.36048334649434 0
-17.35469903832714 -26.08640361218467 0
90.25239349137688 -7.601335575957728 0
-15.0414992277215 -7.806281114259685 0
95.10763426083437 -8.702181494234999 0
-19.84320848930437 -8.891401505841625 0
-30.29295295653364 -11.47781821245177 0
-49.03242111693785 -32.40211364247783 0
105.2253429085972 -11.32320448943153 0
126.8873082262701 -18.19210408058512 0
-118.9025913739205 -31.56513375658853 0
75.40194819163966 -5.28625004115105 0
-37.13043332909663 -13.23043546379429 0
-51.01498772903946 -15.22821918410732 0
110.6574911177265 -12.95097402878447 0
22.86475806434991 -23.38852020446802 0
43.08121639992749 -22.87770817884461 0
62.86394560160393 -22.74378903506776 0
168.9278790047113 -29.02713161377485 0
-98.04556019968767 -32.97788633519594 0
89.39069042434457 -18.98416444164115 0
94.58735750279047 -32.25798061967394 0
33.58135280127032 -24.8437459116457 0
53.59749088823911 -24.74091167462468 0
115.2438999956917 -33.23700833022968 0
-15.39257115401215 -32.72460634708583 0
5.212528556749479 -32.50669625654359 0
26.06826999188579 -33.19018086400492 0
45.68548985051724 -32.90153456223481 0
-41.24535209893 -11.39772820941232 0
-90.03063371022014 -25.19029298028812 0
65.90441089000458 -32.59427002741353 0
154.5195883827574 -25.20846664952136 0
4.427593257917688 -4.864356095115022 0
2.086858929143449 -25.07885141749181 0
67.80876827888612 -4.241869417433159 0
-24.84284300041718 -10.09265819504866 0
116.1826297879137 -14.27032111681894 0
100.3595809147156 -9.774224278606276 0
190.7140845597703 -32.78347589408639 0
-141.3824317378431 -33.19714132685642 0
-55.64077901720523 -25.76700860241525 0
79.23656921291928 -22.10723091699551 0
9.359125976039461 -4.908964592176877 0
71.99836819165097 -4.527878764416764 0
161.6353261897846 -26.20311555327699 0
32.81237473956395 -33.1696112926638 0
52.74703072425245 -33.06795333027664 0
74.61354065586782 -31.99058835027255 0
8.816363191414034 -10.19007562167482 0
-45.28713581151922 -13.17466845670828 0
-75.02369855163742 -33.58894060118154 0
-4.787278385545196 -26.32532396920489 0
72.72969643943959 -22.98918517074296 0
-54.27618336901334 -21.42039346840006 0
-29.44093864926202 -17.7536882071064 0
-26.56122504263315 -25.46863278230242 0
-9.599917039342976 -32.74012656244961 0
64.86279619740858 -9.124392122563375 0
43.40123984601971 -8.841057346378037 0
23.22389659470298 -8.64637547011556 0
34.24016230001676 -11.08818180200092 0
54.41953813297983 -11.15329450505975 0
14.27883446500702 -10.0708043446389 0
-19.67782487076179 -14.82509680487406 0
69.45572350429535 -12.32361817201989 0
-104.1949998763084 -27.47392594838335 0
95.1657100623554 -15.00678842585394 0
79.51911073171564 -34.41410249145211 0
-65.24602383249112 -31.03608602582096 0
-39.75395612339616 -23.36719052601495 0
121.3892565434868 -15.7576515603081 0
13.40720528376621 -30.11495257913348 0
110.3121660353212 -18.85989269439252 0
$EndNodes
$Elements
7 746 1 746
1 1 1 16
1 1 8 
2 8 9 
3 9 10 
4 10 11 
5 11 12 
6 12 13 
7 13 14 
8 14 15 
9 15 16 
10 16 17 
11 17 18 
12 18 19 
13 19 20 
14 20 21 
15 21 22 
16 22 2 
1 4 1 14
17 4 43 
18 43 44 
19 44 45 
20 45 46 
21 46 47 
22 47 48 
23 48 49 
24 49 50 
25 50 51 
26 51 52 
27 52 53 
28 53 54 
29 54 55 
30 55 5 
1 5 1 20
31 5 56 
32 56 57 
33 57 58 
34 58 59 
35 59 60 
36 60 61 
37 61 62 
38 62 63 
39 63 64 
40 64 65 
41 65 66 
42 66 67 
43 67 68 
44 68 69 
45 69 70 
46 70 71 
47 71 72 
48 72 73 
49 73 74 
50 74 1 
1 7 1 44
51 6 104 
52 104 105 
53 105 106 
54 106 107 
55 107 108 
56 108 109 
57 109 110 
58 110 111 
59 111 112 
60 112 113 
61 113 114 
62 114 115 
63 115 116 
64 116 117 
65 117 118 
66 118 119 
67 119 120 
68 120 121 
69 121 122 
70 122 123 
71 123 124 
72 124 125 
73 125 126 
74 126 127 
75 127 128 
76 128 129 
77 129 130 
78 130 131 
79 131 132 
80 132 133 
81 133 134 
82 134 135 
83 135 136 
84 136 137 
85 137 138 
86 138 139 
87 139 140 
88 140 141 
89 141 142 
90 142 143 
91 143 144 
92 144 145 
93 145 146 
94 146 7 
2 20 3 408
95 190 263 204 315 
96 196 407 241 280 
97 241 313 172 352 
98 197 440 257 291 
99 45 46 314 272 
100 467 302 231 412 
101 56 363 55 5 
102 42 364 41 3 
103 313 267 429 229 
104 296 202 461 327 
105 212 290 202 289 
106 39 40 430 292 
107 311 384 342 178 
108 64 305 428 63 
109 276 218 283 500 
110 277 199 279 495 
111 306 367 238 456 
112 322 173 476 265 
113 10 300 441 9 
114 182 377 228 291 
115 344 335 281 170 
116 187 348 240 331 
117 319 271 431 201 
118 215 331 413 376 
119 253 385 190 417 
120 312 268 359 178 
121 276 500 193 383 
122 201 431 209 275 
123 290 342 461 202 
124 312 226 398 268 
125 200 352 261 468 
126 409 219 459 269 
127 408 270 460 220 
128 237 433 542 284 
129 51 273 361 50 
130 305 64 65 334 
131 245 467 484 293 
132 192 414 528 266 
133 170 351 242 344 
134 384 207 479 304 
135 196 280 316 397 
136 274 453 242 354 
137 183 298 230 392 
138 37 282 420 36 
139 179 404 218 276 
140 452 286 456 238 
141 267 407 196 452 
142 18 337 211 299 
143 66 317 249 455 
144 30 343 284 542 
145 28 296 327 27 
146 254 325 176 427 
147 306 199 277 367 
148 239 395 186 394 
149 185 386 248 353 
150 339 284 343 209 
151 16 297 338 15 
152 393 173 322 293 
153 18 299 466 17 
154 218 387 508 283 
155 280 323 457 177 
156 441 208 340 287 
157 269 401 4 43 
158 270 53 54 402 
159 486 213 360 463 
160 238 367 181 405 
161 293 322 497 245 
162 193 272 314 383 
163 265 192 434 324 
164 420 282 435 228 
165 432 197 435 282 
166 203 379 277 495 
167 297 206 445 338 
168 312 178 342 290 
169 226 336 171 345 
170 265 324 315 204 
171 208 471 356 310 
172 345 171 456 286 
173 287 8 9 441 
174 364 430 40 41 
175 307 526 256 419 
176 487 333 68 69 
177 276 490 369 179 
178 274 415 195 453 
179 393 236 523 285 
180 444 34 35 362 
181 271 319 425 175 
182 345 286 397 214 
183 241 439 323 280 
184 447 344 242 453 
185 440 260 389 501 
186 452 196 397 286 
187 227 305 205 403 
188 350 381 516 252 
189 406 296 433 237 
190 485 183 378 289 
191 213 350 506 535 
192 207 521 507 479 
193 275 308 465 201 
194 301 465 246 377 
195 504 403 325 254 
196 288 12 13 370 
197 530 288 458 221 
198 274 307 215 415 
199 436 346 345 214 
200 449 318 229 429 
201 318 320 470 229 
202 231 302 369 494 
203 432 239 394 499 
204 295 180 310 356 
205 395 239 411 292 
206 25 304 479 24 
207 468 252 516 303 
208 400 174 508 387 
209 296 406 289 202 
210 263 190 385 520 
211 197 291 228 435 
212 256 187 331 419 
213 384 304 424 232 
214 319 301 438 233 
215 377 182 438 301 
216 267 313 241 407 
217 417 294 502 253 
218 395 292 430 224 
219 281 335 379 203 
220 448 191 477 294 
221 369 302 511 179 
222 446 250 514 303 
223 468 303 514 200 
224 393 293 484 236 
225 317 399 527 249 
226 230 368 244 392 
227 339 209 482 298 
228 377 246 444 362 
229 454 216 383 314 
230 507 23 24 479 
231 443 248 386 341 
232 396 221 471 300 
233 332 48 49 475 
234 230 298 482 375 
235 415 215 376 320 
236 412 194 484 467 
237 221 458 446 295 
238 441 300 471 208 
239 326 62 63 428 
240 203 495 262 418 
241 531 526 176 325 
242 319 201 465 301 
243 426 309 477 191 
244 181 429 267 405 
245 487 259 390 333 
246 533 501 174 400 
247 268 489 211 359 
248 186 451 260 394 
249 188 347 519 255 
250 274 176 526 307 
251 200 439 241 352 
252 403 504 410 227 
253 368 306 488 244 
254 27 327 424 26 
255 240 422 261 469 
256 272 193 371 481 
257 412 480 374 194 
258 254 427 528 355 
259 270 408 52 53 
260 269 43 44 409 
261 284 339 485 237 
262 379 449 429 181 
263 37 38 411 349 
264 399 317 421 222 
265 66 67 421 317 
266 37 349 432 282 
267 290 212 529 312 
268 45 272 481 365 
269 51 366 480 273 
270 278 382 540 177 
271 395 503 459 186 
272 289 378 462 212 
273 426 233 438 309 
274 340 534 72 73 
275 465 308 444 246 
276 308 493 32 33 
277 318 195 415 320 
278 263 358 497 204 
279 384 311 524 207 
280 498 251 524 311 
281 59 329 492 443 
282 536 217 477 309 
283 326 496 61 62 
284 397 316 539 214 
285 280 177 540 316 
286 172 313 229 470 
287 171 336 462 488 
288 255 326 227 410 
289 180 381 486 310 
290 178 359 498 311 
291 388 285 442 347 
292 305 334 532 205 
293 208 310 486 264 
294 306 456 171 488 
295 235 389 260 451 
296 300 10 11 396 
297 46 47 454 314 
298 380 416 472 243 
299 437 348 399 222 
300 523 353 442 285 
301 256 357 527 187 
302 332 454 47 48 
303 347 188 355 388 
304 390 222 421 333 
305 307 419 331 215 
306 345 346 398 226 
307 305 227 326 428 
308 15 338 473 14 
309 457 323 514 250 
310 59 60 423 329 
311 175 505 279 391 
312 318 447 453 195 
313 447 318 449 234 
314 199 522 391 279 
315 288 530 11 12 
316 172 469 261 352 
317 315 380 417 190 
318 294 417 380 243 
319 514 323 439 200 
320 209 343 510 275 
321 333 421 67 68 
322 521 207 524 321 
323 464 321 524 251 
324 442 210 519 347 
325 386 223 491 341 
326 328 436 258 515 
327 308 33 34 444 
328 183 392 244 378 
329 386 185 460 483 
330 36 420 362 35 
331 230 375 175 391 
332 292 411 38 39 
333 20 21 521 321 
334 274 354 266 450 
335 253 387 218 385 
336 184 489 268 398 
337 265 204 497 322 
338 384 232 461 342 
339 424 327 461 232 
340 480 412 361 273 
341 393 285 388 225 
342 403 205 531 325 
343 538 224 430 364 
344 245 511 302 467 
345 409 365 481 219 
346 408 220 480 366 
347 454 332 494 216 
348 50 361 475 49 
349 507 521 21 22 
350 60 61 496 423 
351 436 328 517 184 
352 297 328 515 206 
353 297 466 517 328 
354 393 225 476 173 
355 304 25 26 424 
356 519 210 492 329 
357 498 337 464 251 
358 18 19 464 337 
359 188 504 254 355 
360 45 365 409 44 
361 51 52 408 366 
362 30 31 510 343 
363 335 234 449 379 
364 22 2 23 507 
365 348 437 422 240 
366 299 211 489 330 
367 74 1 8 509 
368 299 330 517 466 
369 489 184 517 330 
370 537 363 491 223 
371 411 239 432 349 
372 296 28 29 433 
373 57 491 363 56 
374 377 362 420 228 
375 416 324 434 351 
376 71 72 534 463 
377 529 212 462 336 
378 398 346 436 184 
379 276 383 216 490 
380 475 231 494 332 
381 295 356 471 221 
382 335 344 447 234 
383 274 450 427 176 
384 315 324 416 380 
385 175 375 482 271 
386 341 58 59 443 
387 442 353 492 210 
388 334 65 66 455 
389 287 340 73 525 
390 331 240 469 413 
391 353 248 443 492 
392 298 183 485 339 
393 455 249 532 334 
394 312 529 336 226 
395 294 243 472 448 
396 170 281 448 472 
397 321 464 19 20 
398 297 16 17 466 
399 58 341 491 57 
400 412 231 475 361 
401 208 264 534 340 
402 259 506 189 390 
403 14 473 370 13 
404 338 247 370 473 
405 266 354 434 192 
406 518 508 389 235 
407 350 213 486 381 
408 372 371 518 235 
409 374 373 523 236 
410 536 257 533 217 
411 360 487 69 70 
412 418 262 425 426 
413 319 233 426 425 
414 468 261 422 474 
415 291 257 536 182 
416 70 71 463 360 
417 222 390 189 437 
418 368 230 391 522 
419 338 445 478 247 
420 382 278 478 445 
421 320 376 172 470 
422 474 189 506 350 
423 203 418 448 281 
424 426 191 448 418 
425 526 531 357 256 
426 351 434 354 242 
427 186 372 235 451 
428 450 266 528 427 
429 433 29 30 542 
430 350 252 468 474 
431 219 372 186 459 
432 220 460 185 373 
433 540 382 515 258 
434 445 206 515 382 
435 209 431 271 482 
436 533 257 440 501 
437 388 355 528 225 
438 497 358 511 245 
439 337 498 359 211 
440 404 179 511 358 
441 532 249 527 357 
442 373 374 480 220 
443 372 219 481 371 
444 531 205 532 357 
445 236 484 194 374 
446 494 369 490 216 
447 487 360 213 535 
448 326 255 423 496 
449 4 538 364 42 
450 54 55 363 537 
451 267 452 238 405 
452 180 295 446 513 
453 306 368 522 199 
454 528 414 476 225 
455 379 181 367 277 
456 402 223 386 483 
457 353 523 373 185 
458 351 170 472 416 
459 288 541 198 458 
460 247 541 288 370 
461 289 406 237 485 
462 387 253 502 400 
463 376 413 469 172 
464 446 303 516 513 
465 381 180 513 516 
466 214 539 258 436 
467 501 389 508 174 
468 192 265 476 414 
469 437 189 474 422 
470 401 503 395 224 
471 175 425 262 505 
472 446 512 457 250 
473 278 512 198 478 
474 358 263 520 404 
475 385 218 404 520 
476 487 535 506 259 
477 486 463 534 264 
478 378 244 488 462 
479 348 187 527 399 
480 255 410 504 188 
481 221 396 11 530 
482 502 217 533 400 
483 224 538 4 401 
484 223 402 54 537 
485 394 260 440 499 
486 432 499 440 197 
487 401 269 459 503 
488 402 483 460 270 
489 8 287 525 509 
490 73 74 509 525 
491 177 457 512 278 
492 294 477 217 502 
493 329 423 255 519 
494 262 495 279 505 
495 371 193 500 518 
496 508 518 500 283 
497 316 540 258 539 
498 247 478 198 541 
499 458 198 512 446 
500 182 536 309 438 
501 31 32 493 510 
502 308 275 510 493 
2 21 2 4
503 103 104 102 
504 104 103 6 
505 146 147 148 
506 147 146 7 
2 21 3 240
507 629 556 580 657 
508 630 658 581 558 
509 634 599 664 555 
510 619 579 632 550 
511 574 728 550 585 
512 144 150 151 143 
513 585 550 632 679 
514 98 99 107 108 
515 725 586 622 549 
516 553 638 670 617 
517 552 637 671 616 
518 121 578 622 120 
519 551 636 672 615 
520 725 583 667 573 
521 545 677 589 671 
522 544 678 590 672 
523 584 571 722 619 
524 586 662 118 119 
525 655 619 722 675 
526 662 621 117 118 
527 609 690 592 713 
528 675 606 572 655 
529 575 139 140 600 
530 552 625 595 714 
531 553 628 596 715 
532 548 656 577 604 
533 552 717 593 625 
534 553 716 594 628 
535 139 575 646 138 
536 651 556 629 602 
537 725 549 710 583 
538 633 605 630 558 
539 656 548 719 611 
540 112 582 721 618 
541 604 547 648 633 
542 106 107 99 100 
543 719 570 710 611 
544 666 699 609 566 
545 576 114 115 647 
546 619 550 728 584 
547 692 574 608 726 
548 85 86 623 591 
549 12 11 627 596 
550 20 19 624 592 
551 18 17 625 593 
552 16 15 626 595 
553 14 13 628 594 
554 667 661 80 81 
555 669 164 165 663 
556 654 554 648 610 
557 670 588 682 567 
558 564 137 138 646 
559 10 9 698 597 
560 665 111 112 618 
561 600 700 687 575 
562 160 599 650 159 
563 579 133 134 632 
564 2 602 629 169 
565 87 88 649 598 
566 671 589 683 568 
567 672 590 686 569 
568 607 688 652 562 
569 564 634 136 137 
570 722 571 693 659 
571 719 660 691 570 
572 634 555 585 653 
573 75 76 630 605 
574 633 558 548 604 
575 665 644 110 111 
576 588 727 124 125 
577 602 2 22 666 
578 723 703 130 131 
579 651 606 675 556 
580 705 573 667 684 
581 673 140 141 614 
582 586 119 120 622 
583 590 702 128 129 
584 589 701 126 127 
585 112 113 674 582 
586 692 669 728 574 
587 597 627 11 10 
588 588 670 546 727 
589 593 624 19 18 
590 595 625 17 16 
591 594 626 15 14 
592 596 628 13 12 
593 598 623 86 87 
594 572 723 131 132 
595 154 614 631 153 
596 643 696 621 662 
597 598 641 724 557 
598 93 94 665 618 
599 158 612 687 157 
600 688 698 9 8 
601 613 649 88 89 
602 591 623 598 557 
603 89 90 685 613 
604 565 689 587 681 
605 612 158 159 650 
606 592 690 21 20 
607 650 564 646 612 
608 585 555 608 574 
609 640 544 672 636 
610 639 545 671 637 
611 635 546 670 638 
612 634 653 135 136 
613 21 690 609 699 
614 649 613 647 563 
615 132 676 655 572 
616 606 697 603 572 
617 634 564 650 599 
618 641 598 649 563 
619 605 652 1 75 
620 607 562 633 648 
621 587 707 577 712 
622 624 593 717 559 
623 626 594 716 560 
624 624 559 713 592 
625 626 560 714 595 
626 627 561 715 596 
627 633 562 652 605 
628 587 712 122 123 
629 547 707 587 689 
630 91 92 721 620 
631 121 680 656 578 
632 578 711 549 622 
633 648 547 689 610 
634 95 96 645 644 
635 576 674 113 114 
636 724 621 696 557 
637 169 629 657 168 
638 643 601 709 696 
639 579 676 132 133 
640 651 602 666 566 
641 76 77 658 630 
642 588 125 126 682 
643 639 617 677 545 
644 640 616 678 544 
645 589 127 128 683 
646 590 129 130 686 
647 585 679 135 653 
648 708 569 703 603 
649 663 584 728 669 
650 710 549 711 611 
651 648 554 704 607 
652 143 694 631 142 
653 558 581 719 548 
654 599 160 161 664 
655 703 723 572 603 
656 627 597 718 561 
657 121 122 712 680 
658 591 668 84 85 
659 654 610 689 565 
660 587 123 124 681 
661 644 665 94 95 
662 651 543 697 606 
663 577 707 547 604 
664 556 675 722 580 
665 614 154 155 673 
666 646 575 687 612 
667 642 615 708 543 
668 142 631 614 141 
669 168 657 659 167 
670 647 613 685 576 
671 77 78 660 658 
672 662 586 725 643 
673 153 631 694 152 
674 116 706 647 115 
675 713 551 720 609 
676 566 642 543 651 
677 637 560 716 639 
678 636 559 717 640 
679 685 620 674 576 
680 620 685 90 91 
681 670 567 677 617 
682 671 568 678 616 
683 672 569 708 615 
684 96 97 695 645 
685 554 654 546 635 
686 143 151 152 694 
687 108 695 97 98 
688 674 620 721 582 
689 167 659 693 166 
690 78 79 691 660 
691 81 82 684 667 
692 567 701 589 677 
693 568 702 590 678 
694 164 669 692 163 
695 638 561 718 635 
696 543 708 603 697 
697 83 84 668 705 
698 656 611 711 578 
699 156 700 673 155 
700 609 720 642 566 
701 664 161 162 726 
702 618 721 92 93 
703 82 83 705 684 
704 157 687 700 156 
705 559 636 551 713 
706 560 637 552 714 
707 561 638 553 715 
708 109 110 644 645 
709 617 639 716 553 
710 616 640 717 552 
711 163 692 726 162 
712 667 583 710 661 
713 647 706 641 563 
714 8 1 652 688 
715 722 659 657 580 
716 615 642 720 551 
717 719 581 658 660 
718 619 655 676 579 
719 135 679 632 134 
720 712 577 656 680 
721 601 643 725 573 
722 79 80 661 691 
723 555 664 726 608 
724 706 116 724 641 
725 21 699 666 22 
726 108 109 645 695 
727 166 693 663 165 
728 573 705 668 601 
729 126 701 567 682 
730 116 117 621 724 
731 128 702 568 683 
732 140 673 700 600 
733 635 718 704 554 
734 710 570 691 661 
735 130 703 569 686 
736 584 663 693 571 
737 124 727 565 681 
738 557 696 709 591 
739 591 709 601 668 
740 565 727 546 654 
741 688 607 704 698 
742 698 704 718 597 
743 104 105 101 102 
744 100 101 105 106 
745 150 144 145 149 
746 146 148 149 145 
$EndElements
